<?xml version="1.0" encoding="utf-8"?>
<!-- Generator: Adobe Illustrator 22.0.0, SVG Export Plug-In . SVG Version: 6.00 Build 0)  -->
<svg version="1.1" id="Capa_1" xmlns="http://www.w3.org/2000/svg" xmlns:xlink="http://www.w3.org/1999/xlink" x="0px" y="0px"
	 viewBox="0 0 48 48" style="enable-background:new 0 0 48 48;" xml:space="preserve">
<style type="text/css">
	.st0{fill:#1259C3;}
	.st1{fill:#FCFCFC;}
</style>
<path class="st0" d="M44,11v26c0,0.8-0.3,1.5-0.9,2.1C42.5,39.7,41.8,40,41,40H7c-0.8,0-1.5-0.3-2.1-0.9C4.3,38.5,4,37.8,4,37V11
	c0-0.8,0.3-1.5,0.9-2.1C5.5,8.3,6.2,8,7,8h34c0.8,0,1.5,0.3,2.1,0.9C43.7,9.5,44,10.2,44,11z M7,16.4h34V11H7V16.4z M7,22.9V37h34
	V22.9H7z M7,37V11V37z"/>
<rect x="7" y="22.9" class="st0" width="34" height="14.1"/>
<rect x="7" y="11" class="st0" width="34" height="5.5"/>
<rect x="4" y="18.1" class="st1" width="40" height="5.9"/>
<rect x="18.6" y="33.3" class="st1" width="11.3" height="3.4"/>
<rect x="8.9" y="33.3" class="st1" width="8.5" height="3.4"/>
</svg>
