<?xml version="1.0" encoding="utf-8"?>
<!-- Generator: Adobe Illustrator 22.0.0, SVG Export Plug-In . SVG Version: 6.00 Build 0)  -->
<svg version="1.1" id="Capa_1" xmlns="http://www.w3.org/2000/svg" xmlns:xlink="http://www.w3.org/1999/xlink" x="0px" y="0px"
	 viewBox="0 0 37.4 34.5" style="enable-background:new 0 0 37.4 34.5;" xml:space="preserve">
<style type="text/css">
	.st0{fill:#1259C3;stroke:#FFFFFF;stroke-miterlimit:10;}
	.st1{fill:#FFFFFF;}
	.st2{fill:#1259C3;stroke:#1259C3;stroke-miterlimit:10;}
</style>
<path class="st0" d="M5.3,33.8c0-4.9,0-9.9,0-14.9c9,0,17.9,0,26.9,0c0,5,0,10,0,14.9c-3.5,0-7,0-10.6,0c0-4.3,0.1-8.6,0-12.9
	c0-0.4-0.8-1-1.2-1.1c-1-0.2-2.2-0.1-3.2,0c-0.7,0.1-1.4,0.4-1.4,1.3c0,4.3,0.1,8.5,0.1,12.8C12.3,33.8,8.8,33.8,5.3,33.8z"/>
<path class="st1" d="M15.8,33.8c0-5-0.1-10-0.1-15c0-1.1,0.7-1.4,1.4-1.5c1.1-0.1,2.2-0.2,3.2,0c0.5,0.1,1.2,0.9,1.2,1.3
	c0.1,5,0,10.1,0,15.1C19.7,33.8,17.8,33.8,15.8,33.8z"/>
<path class="st2" d="M17.2,2.5c0,0.2-0.2,0.5-0.1,0.7c0.8,2,1.5,3.9,2.3,5.8c0.1,0.1-0.1,0.3-0.2,0.5c-0.3-0.1-0.6-0.2-0.8-0.4
	c-0.6-0.7-1.1-1.5-1.7-2.2c-0.8-0.9-2.4-0.7-3,0.4c-0.6,0.9-0.5,1.9,0,2.8c0.7,1.2,1.5,2.4,2.4,3.7c-1-0.3-1.9-0.3-2.6-1.2
	c-0.4-0.5-1.1-0.8-1.5-1.3c-0.8-1.2-1.7-2.4-2-3.8c-0.2-0.9,0.4-2.3,1-3.1c0.8-0.9,2-1.5,3.1-2.1c0.5-0.3,1-0.4,1.5-0.6
	C16.1,2.2,16.7,2.3,17.2,2.5z"/>
<path class="st2" d="M22.4,2c0.7,0.3,1.4,0.6,2.1,0.9c1.9,0.9,3.2,2.2,3.6,4.3c0.1,0.5,0,1-0.2,1.4c-1,2.4-2.6,4.2-5,5.2
	c-0.2,0.1-0.4,0.1-0.6,0.1c0.8-1.5,1.7-3,2.4-4.5c0.4-0.8,0-2.2-0.8-2.6C23,6.5,22,5.8,21.3,7c-0.4,0.6-0.9,1.3-1.4,1.9
	c-0.2,0.3-0.6,0.5-0.9,0.8c-0.1-0.1-0.2-0.1-0.3-0.2c0.3-1.1,0.5-2.1,0.9-3.2c0.4-1.3,1-2.6,1.5-3.8C21.5,2.3,22,2.2,22.4,2z"/>
<path class="st2" d="M21.7,17.2c0-1.4,0-2.7,0-4c0-1.4-0.4-1.8-1.9-1.8c-0.8,0-1.7,0-2.5,0c-1,0-1.6,0.5-1.6,1.6c0,1.4,0,2.8,0,4.3
	c-2.3,0-4.4,0-6.6,0c-1.6,0-3.3,0-4.9,0c-1.5,0-2.1-0.5-2.1-2c0-1.1,0-2.2,0-3.4c0-0.9,0.4-1.3,1.3-1.3c0.2,0,0.5,0,0.7,0
	c9.7,0,19.3,0,29,0c2,0,2,0,2,2c0,1,0,2.1,0,3.1c0,0.9-0.6,1.5-1.3,1.5C29.9,17.2,25.9,17.2,21.7,17.2z"/>
<rect x="15.8" y="10.5" class="st2" width="6.7" height="6.7"/>
</svg>
