<?xml version="1.0" encoding="utf-8"?>
<!-- Generator: Adobe Illustrator 22.0.0, SVG Export Plug-In . SVG Version: 6.00 Build 0)  -->
<svg version="1.1" id="Capa_1" focusable="false" xmlns="http://www.w3.org/2000/svg" xmlns:xlink="http://www.w3.org/1999/xlink"
	 x="0px" y="0px" viewBox="0 0 14 14" style="enable-background:new 0 0 14 14;" xml:space="preserve">
<style type="text/css">
	.st0{fill:#1259C3;}
</style>
<path class="st0" d="M12.7,7.3l-2.2-0.8c-0.1,0-0.2-0.1-0.4,0L7.9,7.3C7.7,7.4,7.6,7.5,7.6,7.7c0,2.1,1.3,3.5,2.5,4
	c0.2,0.1,0.3,0,0.4,0c1-0.4,2.5-1.7,2.5-4C13,7.5,12.9,7.4,12.7,7.3z M10.3,10.9V7.3L12.1,8C12,9.7,10.9,10.6,10.3,10.9z M5.2,7
	c1.3,0,2.4-1.1,2.4-2.4c0-1.3-1.1-2.4-2.4-2.4S2.8,3.3,2.8,4.6C2.8,5.9,3.9,7,5.2,7z M7,7.7c0,0,0-0.1,0-0.1c0,0-0.1,0-0.1,0H6.6
	C6.2,7.8,5.7,7.9,5.2,7.9S4.3,7.8,3.8,7.6H3.5C2.1,7.6,1,8.7,1,10.1v0.8c0,0.5,0.4,0.9,0.9,0.9h6.6c0.1,0,0.2,0,0.4-0.1
	C7.8,10.9,7,9.5,7,7.7z"/>
</svg>
